<?xml version="1.0" encoding="UTF-8"?>
<svg width="59px" height="22px" viewBox="0 0 59 22" version="1.1" xmlns="http://www.w3.org/2000/svg" xmlns:xlink="http://www.w3.org/1999/xlink">
    <title>Stroke 1 Copy 4</title>
    <defs>
        <rect id="path-1" x="0" y="0" width="59" height="22"></rect>
    </defs>
    <g id="Page-1" stroke="none" stroke-width="1" fill="none" fill-rule="evenodd">
        <g id="Project" transform="translate(-691.000000, -317.000000)">
            <g id="Stroke-1-Copy-4" transform="translate(691.000000, 317.000000)">
                <mask id="mask-2" fill="white">
                    <use xlink:href="#path-1"></use>
                </mask>
                <g id="Mask"></g>
                <path d="M0,9.10786406 C4.19026779,9.10786406 4.19026779,14.1078641 8.38053557,14.1078641 C12.5709302,14.1078641 12.5709302,9.10786406 16.7613249,9.10786406 C20.9517195,9.10786406 20.9517195,14.1078641 25.1421141,14.1078641 C29.3323819,14.1078641 29.3323819,9.10786406 33.5227766,9.10786406 C37.7131712,9.10786406 37.7131712,14.1078641 41.9035658,14.1078641 C46.0940873,14.1078641 46.0940873,9.10786406 50.284482,9.10786406 C54.4748766,9.10786406 54.4748766,14.1078641 58.6653981,14.1078641 C62.8556659,14.1078641 62.8556659,9.10786406 67.0459337,9.10786406 C71.2360746,9.10786406 71.2360746,14.1078641 75.4262156,14.1078641 C79.6163565,14.1078641 79.6163565,9.10786406 83.8066243,9.10786406 C87.9968921,9.10786406 87.9968921,14.1078641 92.1871598,14.1078641 C96.3776813,14.1078641 96.3776813,9.10786406 100.568203,9.10786406 C104.758851,9.10786406 104.758851,14.1078641 108.949373,14.1078641 C113.139894,14.1078641 113.139894,9.10786406 117.330289,9.10786406 C121.520937,9.10786406 121.520937,14.1078641 125.711586,14.1078641 C129.902107,14.1078641 129.902107,9.10786406 134.092755,9.10786406 C138.28315,9.10786406 138.28315,14.1078641 142.473545,14.1078641 C146.664193,14.1078641 146.664193,9.10786406 150.854841,9.10786406 C155.045617,9.10786406 155.045617,14.1078641 159.236265,14.1078641 C163.427294,14.1078641 163.427294,9.10786406 167.618196,9.10786406 C171.809098,9.10786406 171.809098,14.1078641 176,14.1078641" id="Stroke-1" stroke="#FFFFFF" mask="url(#mask-2)"></path>
            </g>
        </g>
    </g>
</svg>